<?xml version="1.0" standalone="no"?>
<!DOCTYPE svg PUBLIC "-//W3C//DTD SVG 20010904//EN"
 "http://www.w3.org/TR/2001/REC-SVG-20010904/DTD/svg10.dtd">
<svg version="1.0" xmlns="http://www.w3.org/2000/svg"
 width="290.000000pt" height="290.000000pt" viewBox="0 0 290.000000 290.000000"
 preserveAspectRatio="xMidYMid meet">

<g transform="translate(0.000000,290.000000) scale(0.100000,-0.100000)"
fill="#000000" stroke="none">
<path d="M998 2139 c-17 -9 -18 -53 -18 -699 0 -498 3 -690 11 -690 6 0 105
79 220 175 169 141 215 175 239 175 24 0 70 -34 239 -175 115 -96 214 -175
220 -175 8 0 11 192 11 690 0 671 -1 690 -19 700 -27 14 -879 13 -903 -1z"/>
</g>
</svg>
